# xmcd
#
# Track frame offsets:
# 150
# 14963
# 49342
# 67581
# 88208
# 116115
# 132277
# 166315
#
# Disc length: 2492 seconds
#
# Revision: 0
# Processed by: cddbd v1.4PL0 Copyright (c) Steve Scherf et al.
# Submitted via: Audion 3.0.2 (http://www.panic.com/audion/)
#
DISCID=6f09ba08
DTITLE=djalunga - amor fingifo
DYEAR=1900
DGENRE=
TTITLE0=4 one
TTITLE1=primera vez c'um ba norte
TTITLE2=subi na ponte
TTITLE3=ti manel
TTITLE4=amor fingido
TTITLE5=fiat
TTITLE6=plamanhazinha
TTITLE7=lament
EXTD=
EXTT0=
EXTT1=
EXTT2=
EXTT3=
EXTT4=
EXTT5=
EXTT6=
EXTT7=
PLAYORDER=
